# Made in Blockbench 4.12.4
mtllib model.mtl

o cube
v 14.0625 21.0625 0.5
v 14.0625 21.0625 0.4375
v 14.0625 0 0.5
v 14.0625 0 0.4375
v -14.0625 21.0625 0.4375
v -14.0625 21.0625 0.5
v -14.0625 0 0.4375
v -14.0625 0 0.5
vt 0.0011086474501108647 0.9990539262062441
vt 0.9988913525498891 0.9990539262062441
vt 0.9988913525498891 0.369914853358562
vt 0.0011086474501108647 0.369914853358562
vt 0.082039911308204 0.8410596026490066
vt 0.19401330376940132 0.8410596026490066
vt 0.19401330376940132 0.5780510879848628
vt 0.082039911308204 0.5780510879848628
vt 0.04767184035476718 0.8599810785241249
vt 0.2572062084257206 0.8599810785241249
vt 0.2572062084257206 0.6367076631977294
vt 0.04767184035476718 0.6367076631977294
vt 0.082039911308204 0.8457899716177861
vt 0.20509977827050999 0.8457899716177861
vt 0.20509977827050999 0.7019867549668874
vt 0.082039911308204 0.7019867549668874
vt 0.14634146341463414 0.8060548722800378
vt 0.25055432372505543 0.8060548722800378
vt 0.25055432372505543 0.6726584673604541
vt 0.14634146341463414 0.6726584673604541
vt 0.09977827050997783 0.815515610217597
vt 0.18736141906873613 0.815515610217597
vt 0.18736141906873613 0.7010406811731316
vt 0.09977827050997783 0.7010406811731316
vn 0 0 -1
vn 1 0 0
vn 0 0 1
vn -1 0 0
vn 0 1 0
vn 0 -1 0
usemtl m_0d9c4f96-ed55-5b94-818c-a7195633c055
f 4/4/1 7/3/1 5/2/1 2/1/1
f 3/8/2 4/7/2 2/6/2 1/5/2
f 8/12/3 3/11/3 1/10/3 6/9/3
f 7/16/4 8/15/4 6/14/4 5/13/4
f 6/20/5 1/19/5 2/18/5 5/17/5
f 7/24/6 4/23/6 3/22/6 8/21/6
o cube
v 14.0625 2.1875 0.4375
v 14.0625 2.1875 -0.5
v 13.1875 2.1875 0.4375
v 13.1875 2.1875 -0.5
v 14.0625 1.4375 0.4375
v 14.0625 1.4375 -0.5
v 11.875 2.1875 0.4375
v 11.875 2.1875 -0.5
v 14.0625 0 0.4375
v 14.0625 0 -0.5
v 10.5625 2.1875 0.4375
v 10.5625 2.1875 -0.5
v 13.0625 0 0.4375
v 13.0625 0 -0.5
v 12.6875 0.34375 -0.5
v 14.0625 0.28125 -0.5
v 14.0625 0.28125 0.4375
v 12.6875 0.34375 0.4375
v 9.25 2.1875 0.4375
v 9.25 2.1875 -0.5
v 11.75 0 0.4375
v 11.75 0 -0.5
v 7.9375 2.1875 0.4375
v 7.9375 2.1875 -0.5
v 10.4375 0 0.4375
v 10.4375 0 -0.5
v 6.5625 2.1875 0.4375
v 6.5625 2.1875 -0.5
v 9.0625 0 0.4375
v 9.0625 0 -0.5
v 5.25 2.1875 0.4375
v 5.25 2.1875 -0.5
v 7.75 0 0.4375
v 7.75 0 -0.5
v 3.9375 2.1875 0.4375
v 3.9375 2.1875 -0.5
v 6.4375 0 0.4375
v 6.4375 0 -0.5
v 2.625 2.1875 0.4375
v 2.625 2.1875 -0.5
v 5.125 0 0.4375
v 5.125 0 -0.5
v 1.3125 2.1875 0.4375
v 1.3125 2.1875 -0.5
v 3.8125 0 0.4375
v 3.8125 0 -0.5
v 0 2.1875 0.4375
v 0 2.1875 -0.5
v 2.5 0 0.4375
v 2.5 0 -0.5
v -1.3125 2.1875 0.4375
v -1.3125 2.1875 -0.5
v 1.1875 0 0.4375
v 1.1875 0 -0.5
v -2.625 2.1875 0.4375
v -2.625 2.1875 -0.5
v -0.125 0 0.4375
v -0.125 0 -0.5
v -4 2.1875 0.4375
v -4 2.1875 -0.5
v -1.5 0 0.4375
v -1.5 0 -0.5
v -5.3125 2.1875 0.4375
v -5.3125 2.1875 -0.5
v -2.8125 0 0.4375
v -2.8125 0 -0.5
v -6.625 2.1875 0.4375
v -6.625 2.1875 -0.5
v -4.125 0 0.4375
v -4.125 0 -0.5
v -7.9375 2.1875 0.4375
v -7.9375 2.1875 -0.5
v -5.4375 0 0.4375
v -5.4375 0 -0.5
v -9.25 2.1875 0.4375
v -9.25 2.1875 -0.5
v -6.75 0 0.4375
v -6.75 0 -0.5
v -10.5625 2.1875 0.4375
v -10.5625 2.1875 -0.5
v -8.0625 0 0.4375
v -8.0625 0 -0.5
v -11.9375 2.1875 0.4375
v -11.9375 2.1875 -0.5
v -9.4375 0 0.4375
v -9.4375 0 -0.5
v -13.25 2.1875 0.4375
v -13.25 2.1875 -0.5
v -10.75 0 0.4375
v -10.75 0 -0.5
v -14.0625 1.75 0.4375
v -14.0625 1.75 -0.5
v -12.0625 0 0.4375
v -12.0625 0 -0.5
v -14.0625 0.625 0.4375
v -14.0625 0.625 -0.5
v -13.375 0 0.4375
v -13.375 0 -0.5
vt 0.017738359201773836 0.3453169347209082
vt 0.017738359201773836 0.3604541154210028
vt 0.0011086474501108647 0.3604541154210028
vt 0.0011086474501108647 0.3453169347209082
vt 0.018847006651884702 0.3462630085146642
vt 0.018847006651884702 0.3604541154210028
vt 0.0011086474501108647 0.3604541154210028
vt 0.0011086474501108647 0.3462630085146642
vt 0.01662971175166297 0.3604541154210028
vt 0.0011086474501108647 0.3604541154210028
vt 0.0011086474501108647 0.34910122989593184
vt 0.017738359201773836 0.34910122989593184
vt 0.017738359201773836 0.3604541154210028
vt 0.0011086474501108647 0.3604541154210028
vt 0.0011086474501108647 0.34910122989593184
vt 0.0011086474501108647 0.3604541154210028
vt 0.0011086474501108647 0.3528855250709555
vt 0.017738359201773836 0.3528855250709555
vt 0.017738359201773836 0.3604541154210028
vt 0.0011086474501108647 0.3604541154210028
vt 0.0011086474501108647 0.3528855250709555
vt 0.017738359201773836 0.3528855250709555
vt 0.017738359201773836 0.3604541154210028
vt 0.018847006651884702 0.3462630085146642
vt 0.018847006651884702 0.3604541154210028
vt 0.0011086474501108647 0.3604541154210028
vt 0.0011086474501108647 0.3462630085146642
vt 0.018847006651884702 0.3462630085146642
vt 0.018847006651884702 0.3604541154210028
vt 0.0011086474501108647 0.3604541154210028
vt 0.0011086474501108647 0.3462630085146642
vt 0.0011086474501108647 0.3604541154210028
vt 0.038802660753880266 0.3325449385052034
vt 0.06319290465631928 0.3315988647114475
vt 0.024390243902439025 0.3604541154210028
vt 0.0011086474501108647 0.3604541154210028
vt 0.038802660753880266 0.3325449385052034
vt 0.06319290465631928 0.3315988647114475
vt 0.024390243902439025 0.3604541154210028
vt 0.06319290465631928 0.3273415326395459
vt 0.06319290465631928 0.3315988647114475
vt 0.038802660753880266 0.3325449385052034
vt 0.045454545454545456 0.3273415326395459
vt 0.017738359201773836 0.3453169347209082
vt 0.017738359201773836 0.3528855250709555
vt 0.0011086474501108647 0.3528855250709555
vt 0.0011086474501108647 0.3453169347209082
vt 0.06319290465631928 0.3273415326395459
vt 0.06319290465631928 0.3315988647114475
vt 0.038802660753880266 0.3325449385052034
vt 0.045454545454545456 0.3273415326395459
vt 0.017738359201773836 0.3453169347209082
vt 0.017738359201773836 0.3528855250709555
vt 0.0011086474501108647 0.3528855250709555
vt 0.0011086474501108647 0.3453169347209082
vt 0.017738359201773836 0.3453169347209082
vt 0.017738359201773836 0.3604541154210028
vt 0.0011086474501108647 0.3604541154210028
vt 0.0011086474501108647 0.3453169347209082
vt 0.017738359201773836 0.3453169347209082
vt 0.017738359201773836 0.3604541154210028
vt 0.0011086474501108647 0.3604541154210028
vt 0.0011086474501108647 0.3453169347209082
vt 0.018847006651884702 0.3462630085146642
vt 0.018847006651884702 0.3604541154210028
vt 0.0011086474501108647 0.3604541154210028
vt 0.0011086474501108647 0.3462630085146642
vt 0.018847006651884702 0.3462630085146642
vt 0.018847006651884702 0.3604541154210028
vt 0.0011086474501108647 0.3604541154210028
vt 0.0011086474501108647 0.3462630085146642
vt 0.01662971175166297 0.292379527291847
vt 0.01662971175166297 0.34266403917800903
vt 0.0011086474501108647 0.35761589403973515
vt 0.0011086474501108647 0.30733138215357314
vt 0.01662971175166297 0.292379527291847
vt 0.01662971175166297 0.34266403917800903
vt 0.0011086474501108647 0.35761589403973515
vt 0.0011086474501108647 0.30733138215357314
vt 0.017738359201773836 0.3453169347209082
vt 0.017738359201773836 0.3604541154210028
vt 0.0011086474501108647 0.3604541154210028
vt 0.0011086474501108647 0.3453169347209082
vt 0.017738359201773836 0.3453169347209082
vt 0.017738359201773836 0.3604541154210028
vt 0.0011086474501108647 0.3604541154210028
vt 0.0011086474501108647 0.3453169347209082
vt 0.018847006651884702 0.3462630085146642
vt 0.018847006651884702 0.3604541154210028
vt 0.0011086474501108647 0.3604541154210028
vt 0.0011086474501108647 0.3462630085146642
vt 0.018847006651884702 0.3462630085146642
vt 0.018847006651884702 0.3604541154210028
vt 0.0011086474501108647 0.3604541154210028
vt 0.0011086474501108647 0.3462630085146642
vt 0.01662971175166297 0.292379527291847
vt 0.01662971175166297 0.34266403917800903
vt 0.0011086474501108647 0.35761589403973515
vt 0.0011086474501108647 0.30733138215357314
vt 0.01662971175166297 0.292379527291847
vt 0.01662971175166297 0.34266403917800903
vt 0.0011086474501108647 0.35761589403973515
vt 0.0011086474501108647 0.30733138215357314
vt 0.017738359201773836 0.3453169347209082
vt 0.017738359201773836 0.3604541154210028
vt 0.0011086474501108647 0.3604541154210028
vt 0.0011086474501108647 0.3453169347209082
vt 0.017738359201773836 0.3453169347209082
vt 0.017738359201773836 0.3604541154210028
vt 0.0011086474501108647 0.3604541154210028
vt 0.0011086474501108647 0.3453169347209082
vt 0.018847006651884702 0.3462630085146642
vt 0.018847006651884702 0.3604541154210028
vt 0.0011086474501108647 0.3604541154210028
vt 0.0011086474501108647 0.3462630085146642
vt 0.018847006651884702 0.3462630085146642
vt 0.018847006651884702 0.3604541154210028
vt 0.0011086474501108647 0.3604541154210028
vt 0.0011086474501108647 0.3462630085146642
vt 0.01662971175166297 0.292379527291847
vt 0.01662971175166297 0.34266403917800903
vt 0.0011086474501108647 0.35761589403973515
vt 0.0011086474501108647 0.30733138215357314
vt 0.01662971175166297 0.292379527291847
vt 0.01662971175166297 0.34266403917800903
vt 0.0011086474501108647 0.35761589403973515
vt 0.0011086474501108647 0.30733138215357314
vt 0.017738359201773836 0.3453169347209082
vt 0.017738359201773836 0.3604541154210028
vt 0.0011086474501108647 0.3604541154210028
vt 0.0011086474501108647 0.3453169347209082
vt 0.017738359201773836 0.3453169347209082
vt 0.017738359201773836 0.3604541154210028
vt 0.0011086474501108647 0.3604541154210028
vt 0.0011086474501108647 0.3453169347209082
vt 0.018847006651884702 0.3462630085146642
vt 0.018847006651884702 0.3604541154210028
vt 0.0011086474501108647 0.3604541154210028
vt 0.0011086474501108647 0.3462630085146642
vt 0.018847006651884702 0.3462630085146642
vt 0.018847006651884702 0.3604541154210028
vt 0.0011086474501108647 0.3604541154210028
vt 0.0011086474501108647 0.3462630085146642
vt 0.01662971175166297 0.292379527291847
vt 0.01662971175166297 0.34266403917800903
vt 0.0011086474501108647 0.35761589403973515
vt 0.0011086474501108647 0.30733138215357314
vt 0.01662971175166297 0.292379527291847
vt 0.01662971175166297 0.34266403917800903
vt 0.0011086474501108647 0.35761589403973515
vt 0.0011086474501108647 0.30733138215357314
vt 0.017738359201773836 0.3453169347209082
vt 0.017738359201773836 0.3604541154210028
vt 0.0011086474501108647 0.3604541154210028
vt 0.0011086474501108647 0.3453169347209082
vt 0.017738359201773836 0.3453169347209082
vt 0.017738359201773836 0.3604541154210028
vt 0.0011086474501108647 0.3604541154210028
vt 0.0011086474501108647 0.3453169347209082
vt 0.018847006651884702 0.3462630085146642
vt 0.018847006651884702 0.3604541154210028
vt 0.0011086474501108647 0.3604541154210028
vt 0.0011086474501108647 0.3462630085146642
vt 0.018847006651884702 0.3462630085146642
vt 0.018847006651884702 0.3604541154210028
vt 0.0011086474501108647 0.3604541154210028
vt 0.0011086474501108647 0.3462630085146642
vt 0.01662971175166297 0.292379527291847
vt 0.01662971175166297 0.34266403917800903
vt 0.0011086474501108647 0.35761589403973515
vt 0.0011086474501108647 0.30733138215357314
vt 0.01662971175166297 0.292379527291847
vt 0.01662971175166297 0.34266403917800903
vt 0.0011086474501108647 0.35761589403973515
vt 0.0011086474501108647 0.30733138215357314
vt 0.017738359201773836 0.3453169347209082
vt 0.017738359201773836 0.3604541154210028
vt 0.0011086474501108647 0.3604541154210028
vt 0.0011086474501108647 0.3453169347209082
vt 0.017738359201773836 0.3453169347209082
vt 0.017738359201773836 0.3604541154210028
vt 0.0011086474501108647 0.3604541154210028
vt 0.0011086474501108647 0.3453169347209082
vt 0.018847006651884702 0.3462630085146642
vt 0.018847006651884702 0.3604541154210028
vt 0.0011086474501108647 0.3604541154210028
vt 0.0011086474501108647 0.3462630085146642
vt 0.018847006651884702 0.3462630085146642
vt 0.018847006651884702 0.3604541154210028
vt 0.0011086474501108647 0.3604541154210028
vt 0.0011086474501108647 0.3462630085146642
vt 0.01662971175166297 0.292379527291847
vt 0.01662971175166297 0.34266403917800903
vt 0.0011086474501108647 0.35761589403973515
vt 0.0011086474501108647 0.30733138215357314
vt 0.01662971175166297 0.292379527291847
vt 0.01662971175166297 0.34266403917800903
vt 0.0011086474501108647 0.35761589403973515
vt 0.0011086474501108647 0.30733138215357314
vt 0.017738359201773836 0.3453169347209082
vt 0.017738359201773836 0.3604541154210028
vt 0.0011086474501108647 0.3604541154210028
vt 0.0011086474501108647 0.3453169347209082
vt 0.017738359201773836 0.3453169347209082
vt 0.017738359201773836 0.3604541154210028
vt 0.0011086474501108647 0.3604541154210028
vt 0.0011086474501108647 0.3453169347209082
vt 0.018847006651884702 0.3462630085146642
vt 0.018847006651884702 0.3604541154210028
vt 0.0011086474501108647 0.3604541154210028
vt 0.0011086474501108647 0.3462630085146642
vt 0.018847006651884702 0.3462630085146642
vt 0.018847006651884702 0.3604541154210028
vt 0.0011086474501108647 0.3604541154210028
vt 0.0011086474501108647 0.3462630085146642
vt 0.01662971175166297 0.292379527291847
vt 0.01662971175166297 0.34266403917800903
vt 0.0011086474501108647 0.35761589403973515
vt 0.0011086474501108647 0.30733138215357314
vt 0.01662971175166297 0.292379527291847
vt 0.01662971175166297 0.34266403917800903
vt 0.0011086474501108647 0.35761589403973515
vt 0.0011086474501108647 0.30733138215357314
vt 0.017738359201773836 0.3453169347209082
vt 0.017738359201773836 0.3604541154210028
vt 0.0011086474501108647 0.3604541154210028
vt 0.0011086474501108647 0.3453169347209082
vt 0.017738359201773836 0.3453169347209082
vt 0.017738359201773836 0.3604541154210028
vt 0.0011086474501108647 0.3604541154210028
vt 0.0011086474501108647 0.3453169347209082
vt 0.018847006651884702 0.3462630085146642
vt 0.018847006651884702 0.3604541154210028
vt 0.0011086474501108647 0.3604541154210028
vt 0.0011086474501108647 0.3462630085146642
vt 0.018847006651884702 0.3462630085146642
vt 0.018847006651884702 0.3604541154210028
vt 0.0011086474501108647 0.3604541154210028
vt 0.0011086474501108647 0.3462630085146642
vt 0.01662971175166297 0.292379527291847
vt 0.01662971175166297 0.34266403917800903
vt 0.0011086474501108647 0.35761589403973515
vt 0.0011086474501108647 0.30733138215357314
vt 0.01662971175166297 0.292379527291847
vt 0.01662971175166297 0.34266403917800903
vt 0.0011086474501108647 0.35761589403973515
vt 0.0011086474501108647 0.30733138215357314
vt 0.017738359201773836 0.3453169347209082
vt 0.017738359201773836 0.3604541154210028
vt 0.0011086474501108647 0.3604541154210028
vt 0.0011086474501108647 0.3453169347209082
vt 0.017738359201773836 0.3453169347209082
vt 0.017738359201773836 0.3604541154210028
vt 0.0011086474501108647 0.3604541154210028
vt 0.0011086474501108647 0.3453169347209082
vt 0.018847006651884702 0.3462630085146642
vt 0.018847006651884702 0.3604541154210028
vt 0.0011086474501108647 0.3604541154210028
vt 0.0011086474501108647 0.3462630085146642
vt 0.018847006651884702 0.3462630085146642
vt 0.018847006651884702 0.3604541154210028
vt 0.0011086474501108647 0.3604541154210028
vt 0.0011086474501108647 0.3462630085146642
vt 0.01662971175166297 0.292379527291847
vt 0.01662971175166297 0.34266403917800903
vt 0.0011086474501108647 0.35761589403973515
vt 0.0011086474501108647 0.30733138215357314
vt 0.01662971175166297 0.292379527291847
vt 0.01662971175166297 0.34266403917800903
vt 0.0011086474501108647 0.35761589403973515
vt 0.0011086474501108647 0.30733138215357314
vt 0.017738359201773836 0.3453169347209082
vt 0.017738359201773836 0.3604541154210028
vt 0.0011086474501108647 0.3604541154210028
vt 0.0011086474501108647 0.3453169347209082
vt 0.017738359201773836 0.3453169347209082
vt 0.017738359201773836 0.3604541154210028
vt 0.0011086474501108647 0.3604541154210028
vt 0.0011086474501108647 0.3453169347209082
vt 0.018847006651884702 0.3462630085146642
vt 0.018847006651884702 0.3604541154210028
vt 0.0011086474501108647 0.3604541154210028
vt 0.0011086474501108647 0.3462630085146642
vt 0.018847006651884702 0.3462630085146642
vt 0.018847006651884702 0.3604541154210028
vt 0.0011086474501108647 0.3604541154210028
vt 0.0011086474501108647 0.3462630085146642
vt 0.01662971175166297 0.292379527291847
vt 0.01662971175166297 0.34266403917800903
vt 0.0011086474501108647 0.35761589403973515
vt 0.0011086474501108647 0.30733138215357314
vt 0.01662971175166297 0.292379527291847
vt 0.01662971175166297 0.34266403917800903
vt 0.0011086474501108647 0.35761589403973515
vt 0.0011086474501108647 0.30733138215357314
vn -0.6507913734559686 -0.7592566023652967 0
vn 0 1 0
vn 0 0 -1
vn 1 0 0
vn 0.6569782809677807 0.7539095027499122 0
vn -0.6553533172180095 -0.7553224673021127 0
vn 0 1 0
vn 0 -1 0
vn 0 0 1
vn 0 0 -1
vn 0 0 -1
vn 1 0 0
vn 0 0 1
vn -0.6757246285173463 -0.7371541402007414 0
vn 0.658504607868518 0.7525766947068778 0
vn -0.658504607868518 -0.7525766947068778 0
vn 0 1 0
vn 0 -1 0
vn 0 0 1
vn 0 0 -1
vn 0.658504607868518 0.7525766947068778 0
vn -0.658504607868518 -0.7525766947068778 0
vn 0 1 0
vn 0 -1 0
vn 0 0 1
vn 0 0 -1
vn 0.658504607868518 0.7525766947068778 0
vn -0.658504607868518 -0.7525766947068778 0
vn 0 1 0
vn 0 -1 0
vn 0 0 1
vn 0 0 -1
vn 0.658504607868518 0.7525766947068778 0
vn -0.658504607868518 -0.7525766947068778 0
vn 0 1 0
vn 0 -1 0
vn 0 0 1
vn 0 0 -1
vn 0.658504607868518 0.7525766947068778 0
vn -0.658504607868518 -0.7525766947068778 0
vn 0 1 0
vn 0 -1 0
vn 0 0 1
vn 0 0 -1
vn 0.658504607868518 0.7525766947068778 0
vn -0.658504607868518 -0.7525766947068778 0
vn 0 1 0
vn 0 -1 0
vn 0 0 1
vn 0 0 -1
vn 0.658504607868518 0.7525766947068778 0
vn -0.658504607868518 -0.7525766947068778 0
vn 0 1 0
vn 0 -1 0
vn 0 0 1
vn 0 0 -1
vn 0.658504607868518 0.7525766947068778 0
vn -0.658504607868518 -0.7525766947068778 0
vn 0 1 0
vn 0 -1 0
vn 0 0 1
vn 0 0 -1
vn 0.658504607868518 0.7525766947068778 0
vn -0.658504607868518 -0.7525766947068778 0
vn 0 1 0
vn 0 -1 0
vn 0 0 1
vn 0 0 -1
vn 0.6585046078685182 0.7525766947068778 0
vn -0.6726727939963125 -0.7399400733959438 0
vn -1 0 0
vn 0 -1 0
vn 0 0 1
vn 0 0 -1
usemtl m_0d9c4f96-ed55-5b94-818c-a7195633c055
f 13/25/7 11/26/7 12/27/7 14/28/7
f 9/29/8 10/30/8 12/31/8 11/32/8
f 12/33/9 10/34/9 14/35/9
f 14/36/10 10/37/10 9/38/10 13/39/10
f 15/40/11 25/41/11 24/42/11 16/43/11
f 20/44/12 23/45/12 26/46/12 19/47/12
f 15/48/13 16/49/13 20/50/13 19/51/13
f 18/52/14 17/53/14 21/54/14 22/55/14
f 19/56/15 26/57/15 25/58/15 15/59/15
f 16/60/16 24/61/16 23/62/16 20/63/16
f 22/64/17 23/65/17 24/66/17 18/67/17
f 18/68/18 24/69/18 25/70/18 17/71/18
f 17/72/19 25/73/19 26/74/19 21/75/19
f 21/76/20 26/77/20 23/78/20 22/79/20
f 30/80/21 28/81/21 27/82/21 29/83/21
f 33/84/22 31/85/22 32/86/22 34/87/22
f 27/88/23 28/89/23 32/90/23 31/91/23
f 30/92/24 29/93/24 33/94/24 34/95/24
f 29/96/25 27/97/25 31/98/25 33/99/25
f 34/100/26 32/101/26 28/102/26 30/103/26
f 38/104/27 36/105/27 35/106/27 37/107/27
f 41/108/28 39/109/28 40/110/28 42/111/28
f 35/112/29 36/113/29 40/114/29 39/115/29
f 38/116/30 37/117/30 41/118/30 42/119/30
f 37/120/31 35/121/31 39/122/31 41/123/31
f 42/124/32 40/125/32 36/126/32 38/127/32
f 46/128/33 44/129/33 43/130/33 45/131/33
f 49/132/34 47/133/34 48/134/34 50/135/34
f 43/136/35 44/137/35 48/138/35 47/139/35
f 46/140/36 45/141/36 49/142/36 50/143/36
f 45/144/37 43/145/37 47/146/37 49/147/37
f 50/148/38 48/149/38 44/150/38 46/151/38
f 54/152/39 52/153/39 51/154/39 53/155/39
f 57/156/40 55/157/40 56/158/40 58/159/40
f 51/160/41 52/161/41 56/162/41 55/163/41
f 54/164/42 53/165/42 57/166/42 58/167/42
f 53/168/43 51/169/43 55/170/43 57/171/43
f 58/172/44 56/173/44 52/174/44 54/175/44
f 62/176/45 60/177/45 59/178/45 61/179/45
f 65/180/46 63/181/46 64/182/46 66/183/46
f 59/184/47 60/185/47 64/186/47 63/187/47
f 62/188/48 61/189/48 65/190/48 66/191/48
f 61/192/49 59/193/49 63/194/49 65/195/49
f 66/196/50 64/197/50 60/198/50 62/199/50
f 70/200/51 68/201/51 67/202/51 69/203/51
f 73/204/52 71/205/52 72/206/52 74/207/52
f 67/208/53 68/209/53 72/210/53 71/211/53
f 70/212/54 69/213/54 73/214/54 74/215/54
f 69/216/55 67/217/55 71/218/55 73/219/55
f 74/220/56 72/221/56 68/222/56 70/223/56
f 78/224/57 76/225/57 75/226/57 77/227/57
f 81/228/58 79/229/58 80/230/58 82/231/58
f 75/232/59 76/233/59 80/234/59 79/235/59
f 78/236/60 77/237/60 81/238/60 82/239/60
f 77/240/61 75/241/61 79/242/61 81/243/61
f 82/244/62 80/245/62 76/246/62 78/247/62
f 86/248/63 84/249/63 83/250/63 85/251/63
f 89/252/64 87/253/64 88/254/64 90/255/64
f 83/256/65 84/257/65 88/258/65 87/259/65
f 86/260/66 85/261/66 89/262/66 90/263/66
f 85/264/67 83/265/67 87/266/67 89/267/67
f 90/268/68 88/269/68 84/270/68 86/271/68
f 94/272/69 92/273/69 91/274/69 93/275/69
f 97/276/70 95/277/70 96/278/70 98/279/70
f 91/280/71 92/281/71 96/282/71 95/283/71
f 94/284/72 93/285/72 97/286/72 98/287/72
f 93/288/73 91/289/73 95/290/73 97/291/73
f 98/292/74 96/293/74 92/294/74 94/295/74
f 102/296/75 100/297/75 99/298/75 101/299/75
f 105/300/76 103/301/76 104/302/76 106/303/76
f 99/304/77 100/305/77 104/306/77 103/307/77
f 102/308/78 101/309/78 105/310/78 106/311/78
f 101/312/79 99/313/79 103/314/79 105/315/79
f 106/316/80 104/317/80 100/318/80 102/319/80
o cube
v 14.0625 21.0625 0.4375
v 14.0625 21.0625 -0.5
v 13.1875 21.0625 0.4375
v 13.1875 21.0625 -0.5
v 14.0625 20.3125 0.4375
v 14.0625 20.3125 -0.5
v 11.875 21.0625 0.4375
v 11.875 21.0625 -0.5
v 14.0625 18.625 0.4375
v 14.0625 18.625 -0.5
v 10.5625 21.0625 0.4375
v 10.5625 21.0625 -0.5
v 13.3125 18.625 0.4375
v 13.3125 18.625 -0.5
v 12.6875 19.21875 -0.5
v 14.0625 19.15625 -0.5
v 14.0625 19.15625 0.4375
v 12.6875 19.21875 0.4375
v 9.25 21.0625 0.4375
v 9.25 21.0625 -0.5
v 12.0625 18.625 0.4375
v 12.0625 18.625 -0.5
v 7.9375 21.0625 0.4375
v 7.9375 21.0625 -0.5
v 10.75 18.625 0.4375
v 10.75 18.625 -0.5
v 6.5625 21.0625 0.4375
v 6.5625 21.0625 -0.5
v 9.4375 18.625 0.4375
v 9.4375 18.625 -0.5
v 5.25 21.0625 0.4375
v 5.25 21.0625 -0.5
v 8.125 18.625 0.4375
v 8.125 18.625 -0.5
v 3.9375 21.0625 0.4375
v 3.9375 21.0625 -0.5
v 6.75 18.625 0.4375
v 6.75 18.625 -0.5
v 2.625 21.0625 0.4375
v 2.625 21.0625 -0.5
v 5.4375 18.625 0.4375
v 5.4375 18.625 -0.5
v 1.3125 21.0625 0.4375
v 1.3125 21.0625 -0.5
v 4.125 18.625 0.4375
v 4.125 18.625 -0.5
v 0 21.0625 0.4375
v 0 21.0625 -0.5
v 2.8125 18.625 0.4375
v 2.8125 18.625 -0.5
v -1.3125 21.0625 0.4375
v -1.3125 21.0625 -0.5
v 1.5 18.625 0.4375
v 1.5 18.625 -0.5
v -2.625 21.0625 0.4375
v -2.625 21.0625 -0.5
v 0.1875 18.625 0.4375
v 0.1875 18.625 -0.5
v -4 21.0625 0.4375
v -4 21.0625 -0.5
v -1.125 18.625 0.4375
v -1.125 18.625 -0.5
v -5.3125 21.0625 0.4375
v -5.3125 21.0625 -0.5
v -2.4375 18.625 0.4375
v -2.4375 18.625 -0.5
v -6.625 21.0625 0.4375
v -6.625 21.0625 -0.5
v -3.75 18.625 0.4375
v -3.75 18.625 -0.5
v -7.9375 21.0625 0.4375
v -7.9375 21.0625 -0.5
v -5.0625 18.625 0.4375
v -5.0625 18.625 -0.5
v -9.25 21.0625 0.4375
v -9.25 21.0625 -0.5
v -6.375 18.625 0.4375
v -6.375 18.625 -0.5
v -10.5625 21.0625 0.4375
v -10.5625 21.0625 -0.5
v -7.6875 18.625 0.4375
v -7.6875 18.625 -0.5
v -11.9375 21.0625 0.4375
v -11.9375 21.0625 -0.5
v -9.0625 18.625 0.4375
v -9.0625 18.625 -0.5
v -13.25 21.0625 0.4375
v -13.25 21.0625 -0.5
v -10.375 18.625 0.4375
v -10.375 18.625 -0.5
v -14.0625 20.625 0.4375
v -14.0625 20.625 -0.5
v -11.6875 18.625 0.4375
v -11.6875 18.625 -0.5
v -14.0625 19.5 0.4375
v -14.0625 19.5 -0.5
v -13 18.625 0.4375
v -13 18.625 -0.5
vt 0.017738359201773836 0.3453169347209082
vt 0.017738359201773836 0.3604541154210028
vt 0.0011086474501108647 0.3604541154210028
vt 0.0011086474501108647 0.3453169347209082
vt 0.018847006651884702 0.3462630085146642
vt 0.018847006651884702 0.3604541154210028
vt 0.0011086474501108647 0.3604541154210028
vt 0.0011086474501108647 0.3462630085146642
vt 0.01662971175166297 0.3604541154210028
vt 0.0011086474501108647 0.3604541154210028
vt 0.0011086474501108647 0.34910122989593184
vt 0.017738359201773836 0.34910122989593184
vt 0.017738359201773836 0.3604541154210028
vt 0.0011086474501108647 0.3604541154210028
vt 0.0011086474501108647 0.34910122989593184
vt 0.0011086474501108647 0.3604541154210028
vt 0.0011086474501108647 0.3528855250709555
vt 0.017738359201773836 0.3528855250709555
vt 0.017738359201773836 0.3604541154210028
vt 0.0011086474501108647 0.3604541154210028
vt 0.0011086474501108647 0.3528855250709555
vt 0.017738359201773836 0.3528855250709555
vt 0.017738359201773836 0.3604541154210028
vt 0.018847006651884702 0.3462630085146642
vt 0.018847006651884702 0.3604541154210028
vt 0.0011086474501108647 0.3604541154210028
vt 0.0011086474501108647 0.3462630085146642
vt 0.018847006651884702 0.3462630085146642
vt 0.018847006651884702 0.3604541154210028
vt 0.0011086474501108647 0.3604541154210028
vt 0.0011086474501108647 0.3462630085146642
vt 0.0011086474501108647 0.3604541154210028
vt 0.0011086474501108647 0.3528855250709555
vt 0.018847006651884702 0.3528855250709555
vt 0.018847006651884702 0.3604541154210028
vt 0.0011086474501108647 0.3604541154210028
vt 0.0011086474501108647 0.3528855250709555
vt 0.018847006651884702 0.3528855250709555
vt 0.018847006651884702 0.3604541154210028
vt 0.018847006651884702 0.3453169347209082
vt 0.018847006651884702 0.3528855250709555
vt 0.0011086474501108647 0.3528855250709555
vt 0.0011086474501108647 0.3453169347209082
vt 0.017738359201773836 0.3453169347209082
vt 0.017738359201773836 0.3528855250709555
vt 0.0011086474501108647 0.3528855250709555
vt 0.0011086474501108647 0.3453169347209082
vt 0.018847006651884702 0.3453169347209082
vt 0.018847006651884702 0.3528855250709555
vt 0.0011086474501108647 0.3528855250709555
vt 0.0011086474501108647 0.3453169347209082
vt 0.017738359201773836 0.3453169347209082
vt 0.017738359201773836 0.3528855250709555
vt 0.0011086474501108647 0.3528855250709555
vt 0.0011086474501108647 0.3453169347209082
vt 0.017738359201773836 0.3453169347209082
vt 0.017738359201773836 0.3604541154210028
vt 0.0011086474501108647 0.3604541154210028
vt 0.0011086474501108647 0.3453169347209082
vt 0.017738359201773836 0.3453169347209082
vt 0.017738359201773836 0.3604541154210028
vt 0.0011086474501108647 0.3604541154210028
vt 0.0011086474501108647 0.3453169347209082
vt 0.018847006651884702 0.3462630085146642
vt 0.018847006651884702 0.3604541154210028
vt 0.0011086474501108647 0.3604541154210028
vt 0.0011086474501108647 0.3462630085146642
vt 0.018847006651884702 0.3462630085146642
vt 0.018847006651884702 0.3604541154210028
vt 0.0011086474501108647 0.3604541154210028
vt 0.0011086474501108647 0.3462630085146642
vt 0.018847006651884702 0.3453169347209082
vt 0.018847006651884702 0.3604541154210028
vt 0.0011086474501108647 0.3604541154210028
vt 0.0011086474501108647 0.3453169347209082
vt 0.018847006651884702 0.3453169347209082
vt 0.018847006651884702 0.3604541154210028
vt 0.0011086474501108647 0.3604541154210028
vt 0.0011086474501108647 0.3453169347209082
vt 0.017738359201773836 0.3453169347209082
vt 0.017738359201773836 0.3604541154210028
vt 0.0011086474501108647 0.3604541154210028
vt 0.0011086474501108647 0.3453169347209082
vt 0.017738359201773836 0.3453169347209082
vt 0.017738359201773836 0.3604541154210028
vt 0.0011086474501108647 0.3604541154210028
vt 0.0011086474501108647 0.3453169347209082
vt 0.018847006651884702 0.3462630085146642
vt 0.018847006651884702 0.3604541154210028
vt 0.0011086474501108647 0.3604541154210028
vt 0.0011086474501108647 0.3462630085146642
vt 0.018847006651884702 0.3462630085146642
vt 0.018847006651884702 0.3604541154210028
vt 0.0011086474501108647 0.3604541154210028
vt 0.0011086474501108647 0.3462630085146642
vt 0.018847006651884702 0.3453169347209082
vt 0.018847006651884702 0.3604541154210028
vt 0.0011086474501108647 0.3604541154210028
vt 0.0011086474501108647 0.3453169347209082
vt 0.018847006651884702 0.3453169347209082
vt 0.018847006651884702 0.3604541154210028
vt 0.0011086474501108647 0.3604541154210028
vt 0.0011086474501108647 0.3453169347209082
vt 0.017738359201773836 0.3453169347209082
vt 0.017738359201773836 0.3604541154210028
vt 0.0011086474501108647 0.3604541154210028
vt 0.0011086474501108647 0.3453169347209082
vt 0.017738359201773836 0.3453169347209082
vt 0.017738359201773836 0.3604541154210028
vt 0.0011086474501108647 0.3604541154210028
vt 0.0011086474501108647 0.3453169347209082
vt 0.018847006651884702 0.3462630085146642
vt 0.018847006651884702 0.3604541154210028
vt 0.0011086474501108647 0.3604541154210028
vt 0.0011086474501108647 0.3462630085146642
vt 0.018847006651884702 0.3462630085146642
vt 0.018847006651884702 0.3604541154210028
vt 0.0011086474501108647 0.3604541154210028
vt 0.0011086474501108647 0.3462630085146642
vt 0.018847006651884702 0.3453169347209082
vt 0.018847006651884702 0.3604541154210028
vt 0.0011086474501108647 0.3604541154210028
vt 0.0011086474501108647 0.3453169347209082
vt 0.018847006651884702 0.3453169347209082
vt 0.018847006651884702 0.3604541154210028
vt 0.0011086474501108647 0.3604541154210028
vt 0.0011086474501108647 0.3453169347209082
vt 0.017738359201773836 0.3453169347209082
vt 0.017738359201773836 0.3604541154210028
vt 0.0011086474501108647 0.3604541154210028
vt 0.0011086474501108647 0.3453169347209082
vt 0.017738359201773836 0.3453169347209082
vt 0.017738359201773836 0.3604541154210028
vt 0.0011086474501108647 0.3604541154210028
vt 0.0011086474501108647 0.3453169347209082
vt 0.018847006651884702 0.3462630085146642
vt 0.018847006651884702 0.3604541154210028
vt 0.0011086474501108647 0.3604541154210028
vt 0.0011086474501108647 0.3462630085146642
vt 0.018847006651884702 0.3462630085146642
vt 0.018847006651884702 0.3604541154210028
vt 0.0011086474501108647 0.3604541154210028
vt 0.0011086474501108647 0.3462630085146642
vt 0.018847006651884702 0.3453169347209082
vt 0.018847006651884702 0.3604541154210028
vt 0.0011086474501108647 0.3604541154210028
vt 0.0011086474501108647 0.3453169347209082
vt 0.018847006651884702 0.3453169347209082
vt 0.018847006651884702 0.3604541154210028
vt 0.0011086474501108647 0.3604541154210028
vt 0.0011086474501108647 0.3453169347209082
vt 0.017738359201773836 0.3453169347209082
vt 0.017738359201773836 0.3604541154210028
vt 0.0011086474501108647 0.3604541154210028
vt 0.0011086474501108647 0.3453169347209082
vt 0.017738359201773836 0.3453169347209082
vt 0.017738359201773836 0.3604541154210028
vt 0.0011086474501108647 0.3604541154210028
vt 0.0011086474501108647 0.3453169347209082
vt 0.018847006651884702 0.3462630085146642
vt 0.018847006651884702 0.3604541154210028
vt 0.0011086474501108647 0.3604541154210028
vt 0.0011086474501108647 0.3462630085146642
vt 0.018847006651884702 0.3462630085146642
vt 0.018847006651884702 0.3604541154210028
vt 0.0011086474501108647 0.3604541154210028
vt 0.0011086474501108647 0.3462630085146642
vt 0.018847006651884702 0.3453169347209082
vt 0.018847006651884702 0.3604541154210028
vt 0.0011086474501108647 0.3604541154210028
vt 0.0011086474501108647 0.3453169347209082
vt 0.018847006651884702 0.3453169347209082
vt 0.018847006651884702 0.3604541154210028
vt 0.0011086474501108647 0.3604541154210028
vt 0.0011086474501108647 0.3453169347209082
vt 0.017738359201773836 0.3453169347209082
vt 0.017738359201773836 0.3604541154210028
vt 0.0011086474501108647 0.3604541154210028
vt 0.0011086474501108647 0.3453169347209082
vt 0.017738359201773836 0.3453169347209082
vt 0.017738359201773836 0.3604541154210028
vt 0.0011086474501108647 0.3604541154210028
vt 0.0011086474501108647 0.3453169347209082
vt 0.018847006651884702 0.3462630085146642
vt 0.018847006651884702 0.3604541154210028
vt 0.0011086474501108647 0.3604541154210028
vt 0.0011086474501108647 0.3462630085146642
vt 0.018847006651884702 0.3462630085146642
vt 0.018847006651884702 0.3604541154210028
vt 0.0011086474501108647 0.3604541154210028
vt 0.0011086474501108647 0.3462630085146642
vt 0.018847006651884702 0.3453169347209082
vt 0.018847006651884702 0.3604541154210028
vt 0.0011086474501108647 0.3604541154210028
vt 0.0011086474501108647 0.3453169347209082
vt 0.018847006651884702 0.3453169347209082
vt 0.018847006651884702 0.3604541154210028
vt 0.0011086474501108647 0.3604541154210028
vt 0.0011086474501108647 0.3453169347209082
vt 0.017738359201773836 0.3453169347209082
vt 0.017738359201773836 0.3604541154210028
vt 0.0011086474501108647 0.3604541154210028
vt 0.0011086474501108647 0.3453169347209082
vt 0.017738359201773836 0.3453169347209082
vt 0.017738359201773836 0.3604541154210028
vt 0.0011086474501108647 0.3604541154210028
vt 0.0011086474501108647 0.3453169347209082
vt 0.018847006651884702 0.3462630085146642
vt 0.018847006651884702 0.3604541154210028
vt 0.0011086474501108647 0.3604541154210028
vt 0.0011086474501108647 0.3462630085146642
vt 0.018847006651884702 0.3462630085146642
vt 0.018847006651884702 0.3604541154210028
vt 0.0011086474501108647 0.3604541154210028
vt 0.0011086474501108647 0.3462630085146642
vt 0.018847006651884702 0.3453169347209082
vt 0.018847006651884702 0.3604541154210028
vt 0.0011086474501108647 0.3604541154210028
vt 0.0011086474501108647 0.3453169347209082
vt 0.018847006651884702 0.3453169347209082
vt 0.018847006651884702 0.3604541154210028
vt 0.0011086474501108647 0.3604541154210028
vt 0.0011086474501108647 0.3453169347209082
vt 0.017738359201773836 0.3453169347209082
vt 0.017738359201773836 0.3604541154210028
vt 0.0011086474501108647 0.3604541154210028
vt 0.0011086474501108647 0.3453169347209082
vt 0.017738359201773836 0.3453169347209082
vt 0.017738359201773836 0.3604541154210028
vt 0.0011086474501108647 0.3604541154210028
vt 0.0011086474501108647 0.3453169347209082
vt 0.018847006651884702 0.3462630085146642
vt 0.018847006651884702 0.3604541154210028
vt 0.0011086474501108647 0.3604541154210028
vt 0.0011086474501108647 0.3462630085146642
vt 0.018847006651884702 0.3462630085146642
vt 0.018847006651884702 0.3604541154210028
vt 0.0011086474501108647 0.3604541154210028
vt 0.0011086474501108647 0.3462630085146642
vt 0.018847006651884702 0.3453169347209082
vt 0.018847006651884702 0.3604541154210028
vt 0.0011086474501108647 0.3604541154210028
vt 0.0011086474501108647 0.3453169347209082
vt 0.018847006651884702 0.3453169347209082
vt 0.018847006651884702 0.3604541154210028
vt 0.0011086474501108647 0.3604541154210028
vt 0.0011086474501108647 0.3453169347209082
vt 0.017738359201773836 0.3453169347209082
vt 0.017738359201773836 0.3604541154210028
vt 0.0011086474501108647 0.3604541154210028
vt 0.0011086474501108647 0.3453169347209082
vt 0.017738359201773836 0.3453169347209082
vt 0.017738359201773836 0.3604541154210028
vt 0.0011086474501108647 0.3604541154210028
vt 0.0011086474501108647 0.3453169347209082
vt 0.018847006651884702 0.3462630085146642
vt 0.018847006651884702 0.3604541154210028
vt 0.0011086474501108647 0.3604541154210028
vt 0.0011086474501108647 0.3462630085146642
vt 0.018847006651884702 0.3462630085146642
vt 0.018847006651884702 0.3604541154210028
vt 0.0011086474501108647 0.3604541154210028
vt 0.0011086474501108647 0.3462630085146642
vt 0.018847006651884702 0.3453169347209082
vt 0.018847006651884702 0.3604541154210028
vt 0.0011086474501108647 0.3604541154210028
vt 0.0011086474501108647 0.3453169347209082
vt 0.018847006651884702 0.3453169347209082
vt 0.018847006651884702 0.3604541154210028
vt 0.0011086474501108647 0.3604541154210028
vt 0.0011086474501108647 0.3453169347209082
vt 0.017738359201773836 0.3453169347209082
vt 0.017738359201773836 0.3604541154210028
vt 0.0011086474501108647 0.3604541154210028
vt 0.0011086474501108647 0.3453169347209082
vt 0.017738359201773836 0.3453169347209082
vt 0.017738359201773836 0.3604541154210028
vt 0.0011086474501108647 0.3604541154210028
vt 0.0011086474501108647 0.3453169347209082
vt 0.018847006651884702 0.3462630085146642
vt 0.018847006651884702 0.3604541154210028
vt 0.0011086474501108647 0.3604541154210028
vt 0.0011086474501108647 0.3462630085146642
vt 0.018847006651884702 0.3462630085146642
vt 0.018847006651884702 0.3604541154210028
vt 0.0011086474501108647 0.3604541154210028
vt 0.0011086474501108647 0.3462630085146642
vt 0.018847006651884702 0.3453169347209082
vt 0.018847006651884702 0.3604541154210028
vt 0.0011086474501108647 0.3604541154210028
vt 0.0011086474501108647 0.3453169347209082
vt 0.018847006651884702 0.3453169347209082
vt 0.018847006651884702 0.3604541154210028
vt 0.0011086474501108647 0.3604541154210028
vt 0.0011086474501108647 0.3453169347209082
vn -0.6507913734559686 -0.7592566023652967 0
vn 0 1 0
vn 0 0 -1
vn 1 0 0
vn 0.6569782809677807 0.7539095027499122 0
vn -0.6553533172180095 -0.7553224673021127 0
vn 0 1 0
vn 0 -1 0
vn 0 0 1
vn 0 0 -1
vn 0 0 -1
vn 1 0 0
vn 0 0 1
vn -0.6887494619146931 -0.7249994335944138 0
vn 0.6549305384178419 0.7556890827898176 0
vn -0.6549305384178419 -0.7556890827898176 0
vn 0 1 0
vn 0 -1 0
vn 0 0 1
vn 0 0 -1
vn 0.6466852516351603 0.7627569634671123 0
vn -0.6466852516351603 -0.7627569634671123 0
vn 0 1 0
vn 0 -1 0
vn 0 0 1
vn 0 0 -1
vn 0.6549305384178419 0.7556890827898176 0
vn -0.6549305384178419 -0.7556890827898176 0
vn 0 1 0
vn 0 -1 0
vn 0 0 1
vn 0 0 -1
vn 0.6549305384178419 0.7556890827898176 0
vn -0.6549305384178419 -0.7556890827898176 0
vn 0 1 0
vn 0 -1 0
vn 0 0 1
vn 0 0 -1
vn 0.6549305384178419 0.7556890827898176 0
vn -0.6549305384178419 -0.7556890827898176 0
vn 0 1 0
vn 0 -1 0
vn 0 0 1
vn 0 0 -1
vn 0.6466852516351603 0.7627569634671123 0
vn -0.6466852516351603 -0.7627569634671123 0
vn 0 1 0
vn 0 -1 0
vn 0 0 1
vn 0 0 -1
vn 0.6466852516351603 0.7627569634671123 0
vn -0.6466852516351603 -0.7627569634671123 0
vn 0 1 0
vn 0 -1 0
vn 0 0 1
vn 0 0 -1
vn 0.6466852516351603 0.7627569634671123 0
vn -0.6466852516351603 -0.7627569634671123 0
vn 0 1 0
vn 0 -1 0
vn 0 0 1
vn 0 0 -1
vn 0.6466852516351603 0.7627569634671123 0
vn -0.6466852516351603 -0.7627569634671123 0
vn 0 1 0
vn 0 -1 0
vn 0 0 1
vn 0 0 -1
vn 0.6441357457827797 0.7649111981170509 0
vn -0.6357072528610997 -0.7719302356170497 0
vn -1 0 0
vn 0 -1 0
vn 0 0 1
vn 0 0 -1
usemtl m_0d9c4f96-ed55-5b94-818c-a7195633c055
f 111/320/81 109/321/81 110/322/81 112/323/81
f 107/324/82 108/325/82 110/326/82 109/327/82
f 110/328/83 108/329/83 112/330/83
f 112/331/84 108/332/84 107/333/84 111/334/84
f 113/335/85 123/336/85 122/337/85 114/338/85
f 118/339/86 121/340/86 124/341/86 117/342/86
f 113/343/87 114/344/87 118/345/87 117/346/87
f 116/347/88 115/348/88 119/349/88 120/350/88
f 117/351/89 124/352/89 123/353/89 113/354/89
f 114/355/90 122/356/90 121/357/90 118/358/90
f 120/359/91 121/360/91 122/361/91 116/362/91
f 116/363/92 122/364/92 123/365/92 115/366/92
f 115/367/93 123/368/93 124/369/93 119/370/93
f 119/371/94 124/372/94 121/373/94 120/374/94
f 128/375/95 126/376/95 125/377/95 127/378/95
f 131/379/96 129/380/96 130/381/96 132/382/96
f 125/383/97 126/384/97 130/385/97 129/386/97
f 128/387/98 127/388/98 131/389/98 132/390/98
f 127/391/99 125/392/99 129/393/99 131/394/99
f 132/395/100 130/396/100 126/397/100 128/398/100
f 136/399/101 134/400/101 133/401/101 135/402/101
f 139/403/102 137/404/102 138/405/102 140/406/102
f 133/407/103 134/408/103 138/409/103 137/410/103
f 136/411/104 135/412/104 139/413/104 140/414/104
f 135/415/105 133/416/105 137/417/105 139/418/105
f 140/419/106 138/420/106 134/421/106 136/422/106
f 144/423/107 142/424/107 141/425/107 143/426/107
f 147/427/108 145/428/108 146/429/108 148/430/108
f 141/431/109 142/432/109 146/433/109 145/434/109
f 144/435/110 143/436/110 147/437/110 148/438/110
f 143/439/111 141/440/111 145/441/111 147/442/111
f 148/443/112 146/444/112 142/445/112 144/446/112
f 152/447/113 150/448/113 149/449/113 151/450/113
f 155/451/114 153/452/114 154/453/114 156/454/114
f 149/455/115 150/456/115 154/457/115 153/458/115
f 152/459/116 151/460/116 155/461/116 156/462/116
f 151/463/117 149/464/117 153/465/117 155/466/117
f 156/467/118 154/468/118 150/469/118 152/470/118
f 160/471/119 158/472/119 157/473/119 159/474/119
f 163/475/120 161/476/120 162/477/120 164/478/120
f 157/479/121 158/480/121 162/481/121 161/482/121
f 160/483/122 159/484/122 163/485/122 164/486/122
f 159/487/123 157/488/123 161/489/123 163/490/123
f 164/491/124 162/492/124 158/493/124 160/494/124
f 168/495/125 166/496/125 165/497/125 167/498/125
f 171/499/126 169/500/126 170/501/126 172/502/126
f 165/503/127 166/504/127 170/505/127 169/506/127
f 168/507/128 167/508/128 171/509/128 172/510/128
f 167/511/129 165/512/129 169/513/129 171/514/129
f 172/515/130 170/516/130 166/517/130 168/518/130
f 176/519/131 174/520/131 173/521/131 175/522/131
f 179/523/132 177/524/132 178/525/132 180/526/132
f 173/527/133 174/528/133 178/529/133 177/530/133
f 176/531/134 175/532/134 179/533/134 180/534/134
f 175/535/135 173/536/135 177/537/135 179/538/135
f 180/539/136 178/540/136 174/541/136 176/542/136
f 184/543/137 182/544/137 181/545/137 183/546/137
f 187/547/138 185/548/138 186/549/138 188/550/138
f 181/551/139 182/552/139 186/553/139 185/554/139
f 184/555/140 183/556/140 187/557/140 188/558/140
f 183/559/141 181/560/141 185/561/141 187/562/141
f 188/563/142 186/564/142 182/565/142 184/566/142
f 192/567/143 190/568/143 189/569/143 191/570/143
f 195/571/144 193/572/144 194/573/144 196/574/144
f 189/575/145 190/576/145 194/577/145 193/578/145
f 192/579/146 191/580/146 195/581/146 196/582/146
f 191/583/147 189/584/147 193/585/147 195/586/147
f 196/587/148 194/588/148 190/589/148 192/590/148
f 200/591/149 198/592/149 197/593/149 199/594/149
f 203/595/150 201/596/150 202/597/150 204/598/150
f 197/599/151 198/600/151 202/601/151 201/602/151
f 200/603/152 199/604/152 203/605/152 204/606/152
f 199/607/153 197/608/153 201/609/153 203/610/153
f 204/611/154 202/612/154 198/613/154 200/614/154